<?xml version="1.0" encoding="UTF-8" standalone="no"?><svg xmlns="http://www.w3.org/2000/svg" xmlns:xlink="http://www.w3.org/1999/xlink" contentScriptType="application/ecmascript" contentStyleType="text/css" height="461px" preserveAspectRatio="none" style="width:684px;height:461px;" version="1.1" viewBox="0 0 684 461" width="684px" zoomAndPan="magnify"><defs><filter height="300%" id="f1cn4trpn6qkjg" width="300%" x="-1" y="-1"><feGaussianBlur result="blurOut" stdDeviation="2.0"/><feColorMatrix in="blurOut" result="blurOut2" type="matrix" values="0 0 0 0 0 0 0 0 0 0 0 0 0 0 0 0 0 0 .4 0"/><feOffset dx="4.0" dy="4.0" in="blurOut2" result="blurOut3"/><feBlend in="SourceGraphic" in2="blurOut3" mode="normal"/></filter></defs><g><!--class Atom--><rect fill="#FEFECE" filter="url(#f1cn4trpn6qkjg)" height="99.2188" id="Atom" style="stroke: #A80036; stroke-width: 1.5;" width="135" x="189.5" y="8"/><ellipse cx="236.75" cy="24" fill="#B4A7E5" rx="11" ry="11" style="stroke: #A80036; stroke-width: 1.0;"/><path d="M237.7031,20.7813 L237.7031,27.2969 L239.4219,27.2969 C239.875,27.2969 240.0156,27.3281 240.1875,27.4531 C240.4219,27.625 240.5313,27.875 240.5313,28.1563 C240.5313,28.7188 240.1719,29 239.4219,29 L234.2813,29 C233.875,29 233.6719,28.9531 233.5156,28.8281 C233.2969,28.6719 233.1563,28.4063 233.1563,28.1563 C233.1563,27.8594 233.3125,27.5781 233.5625,27.4219 C233.7188,27.3125 233.8438,27.2969 234.2813,27.2969 L236,27.2969 L236,20.7813 L234.2813,20.7813 C233.8594,20.7813 233.6719,20.75 233.5156,20.6406 C233.2969,20.4688 233.1563,20.2188 233.1563,19.9375 C233.1563,19.6563 233.3125,19.3594 233.5625,19.2031 C233.7188,19.1094 233.8438,19.0938 234.2813,19.0938 L239.4219,19.0938 C239.875,19.0938 240.0156,19.125 240.1875,19.2344 C240.4219,19.4063 240.5313,19.6719 240.5313,19.9375 C240.5313,20.2344 240.3906,20.5156 240.125,20.6719 C240,20.75 239.8125,20.7813 239.4219,20.7813 Z "/><text fill="#000000" font-family="sans-serif" font-size="12" font-style="italic" lengthAdjust="spacingAndGlyphs" textLength="32" x="257.25" y="28.1543">Atom</text><line style="stroke: #A80036; stroke-width: 1.5;" x1="190.5" x2="323.5" y1="40" y2="40"/><line style="stroke: #A80036; stroke-width: 1.5;" x1="190.5" x2="323.5" y1="48" y2="48"/><ellipse cx="200.5" cy="59.9023" fill="#84BE84" rx="3" ry="3" style="stroke: #038048; stroke-width: 1.0;"/><text fill="#000000" font-family="sans-serif" font-size="11" lengthAdjust="spacingAndGlyphs" textLength="56" x="209.5" y="62.2104">getLabel()</text><ellipse cx="200.5" cy="72.707" fill="#84BE84" rx="3" ry="3" style="stroke: #038048; stroke-width: 1.0;"/><text fill="#000000" font-family="sans-serif" font-size="11" lengthAdjust="spacingAndGlyphs" textLength="56" x="209.5" y="75.0151">getColor()</text><ellipse cx="200.5" cy="85.5117" fill="#84BE84" rx="3" ry="3" style="stroke: #038048; stroke-width: 1.0;"/><text fill="#000000" font-family="sans-serif" font-size="11" lengthAdjust="spacingAndGlyphs" textLength="64" x="209.5" y="87.8198">getRadius()</text><ellipse cx="200.5" cy="98.3164" fill="#84BE84" rx="3" ry="3" style="stroke: #038048; stroke-width: 1.0;"/><text fill="#000000" font-family="sans-serif" font-size="11" lengthAdjust="spacingAndGlyphs" textLength="109" x="209.5" y="100.6245">getAtomicNumber()</text><!--class OxygenAtom--><rect fill="#FEFECE" filter="url(#f1cn4trpn6qkjg)" height="150.4375" id="OxygenAtom" style="stroke: #A80036; stroke-width: 1.5;" width="144" x="6" y="167"/><ellipse cx="36.75" cy="183" fill="#ADD1B2" rx="11" ry="11" style="stroke: #A80036; stroke-width: 1.0;"/><path d="M39.0938,178.6719 L39.2656,178.75 C39.4844,178.4375 39.6875,178.3438 39.9844,178.3438 C40.2813,178.3438 40.5625,178.4844 40.7188,178.75 C40.8125,178.9063 40.8281,179.0313 40.8281,179.4688 L40.8281,180.8906 C40.8281,181.3125 40.7969,181.5 40.6875,181.6563 C40.5156,181.875 40.25,182.0156 39.9844,182.0156 C39.7656,182.0156 39.5313,181.9063 39.3906,181.7656 C39.25,181.6406 39.2188,181.5156 39.1563,181.1094 C39.0625,180.7031 38.8906,180.4844 38.4063,180.2031 C37.9375,179.9531 37.3281,179.7969 36.75,179.7969 C35.0156,179.7969 33.7656,181.1094 33.7656,182.8906 L33.7656,183.9844 C33.7656,185.6875 35.0625,186.7813 37.1094,186.7813 C37.875,186.7813 38.5625,186.6563 38.9844,186.3906 C39.1719,186.2969 39.1719,186.2969 39.625,185.8125 C39.8125,185.625 40.0156,185.5469 40.2344,185.5469 C40.7031,185.5469 41.0938,185.9375 41.0938,186.3906 C41.0938,186.7813 40.7656,187.2344 40.1875,187.6406 C39.4375,188.1875 38.2813,188.4844 37.0625,188.4844 C34.1719,188.4844 32.0625,186.5938 32.0625,184.0156 L32.0625,182.8906 C32.0625,180.1719 34.0625,178.0938 36.6875,178.0938 C37.5625,178.0938 38.1563,178.2344 39.0938,178.6719 Z "/><text fill="#000000" font-family="sans-serif" font-size="12" lengthAdjust="spacingAndGlyphs" textLength="77" x="54.25" y="187.1543">OxygenAtom</text><line style="stroke: #A80036; stroke-width: 1.5;" x1="7" x2="149" y1="199" y2="199"/><rect fill="none" height="6" style="stroke: #C82930; stroke-width: 1.0;" width="6" x="14" y="207.9023"/><text fill="#000000" font-family="sans-serif" font-size="11" lengthAdjust="spacingAndGlyphs" textLength="104" x="26" y="213.2104">static defaultLabel</text><rect fill="none" height="6" style="stroke: #C82930; stroke-width: 1.0;" width="6" x="14" y="220.707"/><text fill="#000000" font-family="sans-serif" font-size="11" lengthAdjust="spacingAndGlyphs" textLength="104" x="26" y="226.0151">static defaultColor</text><rect fill="none" height="6" style="stroke: #C82930; stroke-width: 1.0;" width="6" x="14" y="233.5117"/><text fill="#000000" font-family="sans-serif" font-size="11" lengthAdjust="spacingAndGlyphs" textLength="112" x="26" y="238.8198">static defaultRadius</text><rect fill="none" height="6" style="stroke: #C82930; stroke-width: 1.0;" width="6" x="14" y="246.3164"/><text fill="#000000" font-family="sans-serif" font-size="11" lengthAdjust="spacingAndGlyphs" textLength="118" x="26" y="251.6245">static atomicNumber</text><line style="stroke: #A80036; stroke-width: 1.5;" x1="7" x2="149" y1="258.2188" y2="258.2188"/><ellipse cx="17" cy="270.1211" fill="#84BE84" rx="3" ry="3" style="stroke: #038048; stroke-width: 1.0;"/><text fill="#000000" font-family="sans-serif" font-size="11" lengthAdjust="spacingAndGlyphs" textLength="56" x="26" y="272.4292">getLabel()</text><ellipse cx="17" cy="282.9258" fill="#84BE84" rx="3" ry="3" style="stroke: #038048; stroke-width: 1.0;"/><text fill="#000000" font-family="sans-serif" font-size="11" lengthAdjust="spacingAndGlyphs" textLength="56" x="26" y="285.2339">getColor()</text><ellipse cx="17" cy="295.7305" fill="#84BE84" rx="3" ry="3" style="stroke: #038048; stroke-width: 1.0;"/><text fill="#000000" font-family="sans-serif" font-size="11" lengthAdjust="spacingAndGlyphs" textLength="64" x="26" y="298.0386">getRadius()</text><ellipse cx="17" cy="308.5352" fill="#84BE84" rx="3" ry="3" style="stroke: #038048; stroke-width: 1.0;"/><text fill="#000000" font-family="sans-serif" font-size="11" lengthAdjust="spacingAndGlyphs" textLength="109" x="26" y="310.8433">getAtomicNumber()</text><!--class HydrogenAtom--><rect fill="#FEFECE" filter="url(#f1cn4trpn6qkjg)" height="150.4375" id="HydrogenAtom" style="stroke: #A80036; stroke-width: 1.5;" width="144" x="185" y="167"/><ellipse cx="209" cy="183" fill="#ADD1B2" rx="11" ry="11" style="stroke: #A80036; stroke-width: 1.0;"/><path d="M211.3438,178.6719 L211.5156,178.75 C211.7344,178.4375 211.9375,178.3438 212.2344,178.3438 C212.5313,178.3438 212.8125,178.4844 212.9688,178.75 C213.0625,178.9063 213.0781,179.0313 213.0781,179.4688 L213.0781,180.8906 C213.0781,181.3125 213.0469,181.5 212.9375,181.6563 C212.7656,181.875 212.5,182.0156 212.2344,182.0156 C212.0156,182.0156 211.7813,181.9063 211.6406,181.7656 C211.5,181.6406 211.4688,181.5156 211.4063,181.1094 C211.3125,180.7031 211.1406,180.4844 210.6563,180.2031 C210.1875,179.9531 209.5781,179.7969 209,179.7969 C207.2656,179.7969 206.0156,181.1094 206.0156,182.8906 L206.0156,183.9844 C206.0156,185.6875 207.3125,186.7813 209.3594,186.7813 C210.125,186.7813 210.8125,186.6563 211.2344,186.3906 C211.4219,186.2969 211.4219,186.2969 211.875,185.8125 C212.0625,185.625 212.2656,185.5469 212.4844,185.5469 C212.9531,185.5469 213.3438,185.9375 213.3438,186.3906 C213.3438,186.7813 213.0156,187.2344 212.4375,187.6406 C211.6875,188.1875 210.5313,188.4844 209.3125,188.4844 C206.4219,188.4844 204.3125,186.5938 204.3125,184.0156 L204.3125,182.8906 C204.3125,180.1719 206.3125,178.0938 208.9375,178.0938 C209.8125,178.0938 210.4063,178.2344 211.3438,178.6719 Z "/><text fill="#000000" font-family="sans-serif" font-size="12" lengthAdjust="spacingAndGlyphs" textLength="92" x="225" y="187.1543">HydrogenAtom</text><line style="stroke: #A80036; stroke-width: 1.5;" x1="186" x2="328" y1="199" y2="199"/><rect fill="none" height="6" style="stroke: #C82930; stroke-width: 1.0;" width="6" x="193" y="207.9023"/><text fill="#000000" font-family="sans-serif" font-size="11" lengthAdjust="spacingAndGlyphs" textLength="104" x="205" y="213.2104">static defaultLabel</text><rect fill="none" height="6" style="stroke: #C82930; stroke-width: 1.0;" width="6" x="193" y="220.707"/><text fill="#000000" font-family="sans-serif" font-size="11" lengthAdjust="spacingAndGlyphs" textLength="104" x="205" y="226.0151">static defaultColor</text><rect fill="none" height="6" style="stroke: #C82930; stroke-width: 1.0;" width="6" x="193" y="233.5117"/><text fill="#000000" font-family="sans-serif" font-size="11" lengthAdjust="spacingAndGlyphs" textLength="112" x="205" y="238.8198">static defaultRadius</text><rect fill="none" height="6" style="stroke: #C82930; stroke-width: 1.0;" width="6" x="193" y="246.3164"/><text fill="#000000" font-family="sans-serif" font-size="11" lengthAdjust="spacingAndGlyphs" textLength="118" x="205" y="251.6245">static atomicNumber</text><line style="stroke: #A80036; stroke-width: 1.5;" x1="186" x2="328" y1="258.2188" y2="258.2188"/><ellipse cx="196" cy="270.1211" fill="#84BE84" rx="3" ry="3" style="stroke: #038048; stroke-width: 1.0;"/><text fill="#000000" font-family="sans-serif" font-size="11" lengthAdjust="spacingAndGlyphs" textLength="56" x="205" y="272.4292">getLabel()</text><ellipse cx="196" cy="282.9258" fill="#84BE84" rx="3" ry="3" style="stroke: #038048; stroke-width: 1.0;"/><text fill="#000000" font-family="sans-serif" font-size="11" lengthAdjust="spacingAndGlyphs" textLength="56" x="205" y="285.2339">getColor()</text><ellipse cx="196" cy="295.7305" fill="#84BE84" rx="3" ry="3" style="stroke: #038048; stroke-width: 1.0;"/><text fill="#000000" font-family="sans-serif" font-size="11" lengthAdjust="spacingAndGlyphs" textLength="64" x="205" y="298.0386">getRadius()</text><ellipse cx="196" cy="308.5352" fill="#84BE84" rx="3" ry="3" style="stroke: #038048; stroke-width: 1.0;"/><text fill="#000000" font-family="sans-serif" font-size="11" lengthAdjust="spacingAndGlyphs" textLength="109" x="205" y="310.8433">getAtomicNumber()</text><!--class PropertyDecorator--><rect fill="#FEFECE" filter="url(#f1cn4trpn6qkjg)" height="112.0234" id="PropertyDecorator" style="stroke: #A80036; stroke-width: 1.5;" width="148" x="364" y="186"/><ellipse cx="379" cy="202" fill="#A9DCDF" rx="11" ry="11" style="stroke: #A80036; stroke-width: 1.0;"/><path d="M380.5781,203.8125 L376.5313,203.8125 L376.1406,204.7969 L376.5313,204.7969 C376.9844,204.7969 377.125,204.8281 377.2969,204.9531 C377.5156,205.125 377.6406,205.375 377.6406,205.6563 C377.6406,205.9375 377.5,206.2344 377.2344,206.375 C377.1094,206.4688 376.8906,206.5 376.5313,206.5 L374.2656,206.5 C373.5156,206.5 373.1406,206.2188 373.1406,205.6563 C373.1406,205.3594 373.2969,205.0781 373.5469,204.9219 C373.7031,204.8125 373.8594,204.7969 374.2813,204.7969 L376.9219,198.2813 L375.8438,198.2813 C375.4063,198.2813 375.2344,198.25 375.0625,198.1406 C374.8438,197.9688 374.7031,197.7188 374.7031,197.4375 C374.7031,197.1563 374.8594,196.875 375.1094,196.7031 C375.2656,196.6094 375.3906,196.5938 375.8438,196.5938 L379.5156,196.5938 L382.9063,204.7969 C383.375,204.7969 383.5313,204.8281 383.7031,204.9688 C383.9219,205.125 384.0625,205.375 384.0625,205.6563 C384.0625,205.9375 383.9063,206.2344 383.6563,206.375 C383.5156,206.4688 383.2969,206.5 382.9375,206.5 L380.5781,206.5 C380.1563,206.5 379.9531,206.4531 379.8125,206.3281 C379.5938,206.1719 379.4531,205.9219 379.4531,205.6563 C379.4531,205.3594 379.6094,205.0781 379.8594,204.9219 C380.0156,204.8125 380.125,204.7969 380.5781,204.7969 L380.9688,204.7969 Z M379.875,202.1094 L378.5469,198.8438 L377.2031,202.1094 Z "/><text fill="#000000" font-family="sans-serif" font-size="12" font-style="italic" lengthAdjust="spacingAndGlyphs" textLength="116" x="393" y="206.1543">PropertyDecorator</text><line style="stroke: #A80036; stroke-width: 1.5;" x1="365" x2="511" y1="218" y2="218"/><rect fill="none" height="6" style="stroke: #C82930; stroke-width: 1.0;" width="6" x="372" y="226.9023"/><text fill="#000000" font-family="sans-serif" font-size="11" lengthAdjust="spacingAndGlyphs" textLength="78" x="384" y="232.2104">wrappedAtom</text><line style="stroke: #A80036; stroke-width: 1.5;" x1="365" x2="511" y1="238.8047" y2="238.8047"/><ellipse cx="375" cy="250.707" fill="#84BE84" rx="3" ry="3" style="stroke: #038048; stroke-width: 1.0;"/><text fill="#000000" font-family="sans-serif" font-size="11" lengthAdjust="spacingAndGlyphs" textLength="56" x="384" y="253.0151">getLabel()</text><ellipse cx="375" cy="263.5117" fill="#84BE84" rx="3" ry="3" style="stroke: #038048; stroke-width: 1.0;"/><text fill="#000000" font-family="sans-serif" font-size="11" lengthAdjust="spacingAndGlyphs" textLength="56" x="384" y="265.8198">getColor()</text><ellipse cx="375" cy="276.3164" fill="#84BE84" rx="3" ry="3" style="stroke: #038048; stroke-width: 1.0;"/><text fill="#000000" font-family="sans-serif" font-size="11" lengthAdjust="spacingAndGlyphs" textLength="64" x="384" y="278.6245">getRadius()</text><ellipse cx="375" cy="289.1211" fill="#84BE84" rx="3" ry="3" style="stroke: #038048; stroke-width: 1.0;"/><text fill="#000000" font-family="sans-serif" font-size="11" lengthAdjust="spacingAndGlyphs" textLength="109" x="384" y="291.4292">getAtomicNumber()</text><!--class LabelDecorator--><rect fill="#FEFECE" filter="url(#f1cn4trpn6qkjg)" height="73.6094" id="LabelDecorator" style="stroke: #A80036; stroke-width: 1.5;" width="128" x="211" y="377"/><ellipse cx="226" cy="393" fill="#ADD1B2" rx="11" ry="11" style="stroke: #A80036; stroke-width: 1.0;"/><path d="M228.3438,388.6719 L228.5156,388.75 C228.7344,388.4375 228.9375,388.3438 229.2344,388.3438 C229.5313,388.3438 229.8125,388.4844 229.9688,388.75 C230.0625,388.9063 230.0781,389.0313 230.0781,389.4688 L230.0781,390.8906 C230.0781,391.3125 230.0469,391.5 229.9375,391.6563 C229.7656,391.875 229.5,392.0156 229.2344,392.0156 C229.0156,392.0156 228.7813,391.9063 228.6406,391.7656 C228.5,391.6406 228.4688,391.5156 228.4063,391.1094 C228.3125,390.7031 228.1406,390.4844 227.6563,390.2031 C227.1875,389.9531 226.5781,389.7969 226,389.7969 C224.2656,389.7969 223.0156,391.1094 223.0156,392.8906 L223.0156,393.9844 C223.0156,395.6875 224.3125,396.7813 226.3594,396.7813 C227.125,396.7813 227.8125,396.6563 228.2344,396.3906 C228.4219,396.2969 228.4219,396.2969 228.875,395.8125 C229.0625,395.625 229.2656,395.5469 229.4844,395.5469 C229.9531,395.5469 230.3438,395.9375 230.3438,396.3906 C230.3438,396.7813 230.0156,397.2344 229.4375,397.6406 C228.6875,398.1875 227.5313,398.4844 226.3125,398.4844 C223.4219,398.4844 221.3125,396.5938 221.3125,394.0156 L221.3125,392.8906 C221.3125,390.1719 223.3125,388.0938 225.9375,388.0938 C226.8125,388.0938 227.4063,388.2344 228.3438,388.6719 Z "/><text fill="#000000" font-family="sans-serif" font-size="12" lengthAdjust="spacingAndGlyphs" textLength="96" x="240" y="397.1543">LabelDecorator</text><line style="stroke: #A80036; stroke-width: 1.5;" x1="212" x2="338" y1="409" y2="409"/><rect fill="none" height="6" style="stroke: #C82930; stroke-width: 1.0;" width="6" x="219" y="417.9023"/><text fill="#000000" font-family="sans-serif" font-size="11" lengthAdjust="spacingAndGlyphs" textLength="27" x="231" y="423.2104">label</text><line style="stroke: #A80036; stroke-width: 1.5;" x1="212" x2="338" y1="429.8047" y2="429.8047"/><ellipse cx="222" cy="441.707" fill="#84BE84" rx="3" ry="3" style="stroke: #038048; stroke-width: 1.0;"/><text fill="#000000" font-family="sans-serif" font-size="11" lengthAdjust="spacingAndGlyphs" textLength="56" x="231" y="444.0151">getLabel()</text><!--class ColorDecorator--><rect fill="#FEFECE" filter="url(#f1cn4trpn6qkjg)" height="73.6094" id="ColorDecorator" style="stroke: #A80036; stroke-width: 1.5;" width="127" x="374.5" y="377"/><ellipse cx="389.5" cy="393" fill="#ADD1B2" rx="11" ry="11" style="stroke: #A80036; stroke-width: 1.0;"/><path d="M391.8438,388.6719 L392.0156,388.75 C392.2344,388.4375 392.4375,388.3438 392.7344,388.3438 C393.0313,388.3438 393.3125,388.4844 393.4688,388.75 C393.5625,388.9063 393.5781,389.0313 393.5781,389.4688 L393.5781,390.8906 C393.5781,391.3125 393.5469,391.5 393.4375,391.6563 C393.2656,391.875 393,392.0156 392.7344,392.0156 C392.5156,392.0156 392.2813,391.9063 392.1406,391.7656 C392,391.6406 391.9688,391.5156 391.9063,391.1094 C391.8125,390.7031 391.6406,390.4844 391.1563,390.2031 C390.6875,389.9531 390.0781,389.7969 389.5,389.7969 C387.7656,389.7969 386.5156,391.1094 386.5156,392.8906 L386.5156,393.9844 C386.5156,395.6875 387.8125,396.7813 389.8594,396.7813 C390.625,396.7813 391.3125,396.6563 391.7344,396.3906 C391.9219,396.2969 391.9219,396.2969 392.375,395.8125 C392.5625,395.625 392.7656,395.5469 392.9844,395.5469 C393.4531,395.5469 393.8438,395.9375 393.8438,396.3906 C393.8438,396.7813 393.5156,397.2344 392.9375,397.6406 C392.1875,398.1875 391.0313,398.4844 389.8125,398.4844 C386.9219,398.4844 384.8125,396.5938 384.8125,394.0156 L384.8125,392.8906 C384.8125,390.1719 386.8125,388.0938 389.4375,388.0938 C390.3125,388.0938 390.9063,388.2344 391.8438,388.6719 Z "/><text fill="#000000" font-family="sans-serif" font-size="12" lengthAdjust="spacingAndGlyphs" textLength="95" x="403.5" y="397.1543">ColorDecorator</text><line style="stroke: #A80036; stroke-width: 1.5;" x1="375.5" x2="500.5" y1="409" y2="409"/><rect fill="none" height="6" style="stroke: #C82930; stroke-width: 1.0;" width="6" x="382.5" y="417.9023"/><text fill="#000000" font-family="sans-serif" font-size="11" lengthAdjust="spacingAndGlyphs" textLength="28" x="394.5" y="423.2104">color</text><line style="stroke: #A80036; stroke-width: 1.5;" x1="375.5" x2="500.5" y1="429.8047" y2="429.8047"/><ellipse cx="385.5" cy="441.707" fill="#84BE84" rx="3" ry="3" style="stroke: #038048; stroke-width: 1.0;"/><text fill="#000000" font-family="sans-serif" font-size="11" lengthAdjust="spacingAndGlyphs" textLength="56" x="394.5" y="444.0151">getColor()</text><!--class RadiusDecorator--><rect fill="#FEFECE" filter="url(#f1cn4trpn6qkjg)" height="73.6094" id="RadiusDecorator" style="stroke: #A80036; stroke-width: 1.5;" width="137" x="536.5" y="377"/><ellipse cx="551.5" cy="393" fill="#ADD1B2" rx="11" ry="11" style="stroke: #A80036; stroke-width: 1.0;"/><path d="M553.8438,388.6719 L554.0156,388.75 C554.2344,388.4375 554.4375,388.3438 554.7344,388.3438 C555.0313,388.3438 555.3125,388.4844 555.4688,388.75 C555.5625,388.9063 555.5781,389.0313 555.5781,389.4688 L555.5781,390.8906 C555.5781,391.3125 555.5469,391.5 555.4375,391.6563 C555.2656,391.875 555,392.0156 554.7344,392.0156 C554.5156,392.0156 554.2813,391.9063 554.1406,391.7656 C554,391.6406 553.9688,391.5156 553.9063,391.1094 C553.8125,390.7031 553.6406,390.4844 553.1563,390.2031 C552.6875,389.9531 552.0781,389.7969 551.5,389.7969 C549.7656,389.7969 548.5156,391.1094 548.5156,392.8906 L548.5156,393.9844 C548.5156,395.6875 549.8125,396.7813 551.8594,396.7813 C552.625,396.7813 553.3125,396.6563 553.7344,396.3906 C553.9219,396.2969 553.9219,396.2969 554.375,395.8125 C554.5625,395.625 554.7656,395.5469 554.9844,395.5469 C555.4531,395.5469 555.8438,395.9375 555.8438,396.3906 C555.8438,396.7813 555.5156,397.2344 554.9375,397.6406 C554.1875,398.1875 553.0313,398.4844 551.8125,398.4844 C548.9219,398.4844 546.8125,396.5938 546.8125,394.0156 L546.8125,392.8906 C546.8125,390.1719 548.8125,388.0938 551.4375,388.0938 C552.3125,388.0938 552.9063,388.2344 553.8438,388.6719 Z "/><text fill="#000000" font-family="sans-serif" font-size="12" lengthAdjust="spacingAndGlyphs" textLength="105" x="565.5" y="397.1543">RadiusDecorator</text><line style="stroke: #A80036; stroke-width: 1.5;" x1="537.5" x2="672.5" y1="409" y2="409"/><rect fill="none" height="6" style="stroke: #C82930; stroke-width: 1.0;" width="6" x="544.5" y="417.9023"/><text fill="#000000" font-family="sans-serif" font-size="11" lengthAdjust="spacingAndGlyphs" textLength="36" x="556.5" y="423.2104">radius</text><line style="stroke: #A80036; stroke-width: 1.5;" x1="537.5" x2="672.5" y1="429.8047" y2="429.8047"/><ellipse cx="547.5" cy="441.707" fill="#84BE84" rx="3" ry="3" style="stroke: #038048; stroke-width: 1.0;"/><text fill="#000000" font-family="sans-serif" font-size="11" lengthAdjust="spacingAndGlyphs" textLength="64" x="556.5" y="444.0151">getRadius()</text><!--link Atom to OxygenAtom--><path d="M194.956,121.757 C180.462,136.534 164.905,152.396 150.018,167.574 " fill="none" id="Atom-OxygenAtom" style="stroke: #A80036; stroke-width: 1.0; stroke-dasharray: 7.0,7.0;"/><polygon fill="none" points="190.029,116.783,209.031,107.407,200.024,126.587,190.029,116.783" style="stroke: #A80036; stroke-width: 1.0;"/><!--link Atom to HydrogenAtom--><path d="M257,127.574 C257,140.42 257,153.89 257,166.879 " fill="none" id="Atom-HydrogenAtom" style="stroke: #A80036; stroke-width: 1.0; stroke-dasharray: 7.0,7.0;"/><polygon fill="none" points="250,127.407,257,107.407,264,127.407,250,127.407" style="stroke: #A80036; stroke-width: 1.0;"/><!--link Atom to PropertyDecorator--><path d="M319.765,121.785 C340.443,142.635 363.26,165.641 383.289,185.836 " fill="none" id="Atom-PropertyDecorator" style="stroke: #A80036; stroke-width: 1.0; stroke-dasharray: 7.0,7.0;"/><polygon fill="none" points="314.618,126.536,305.505,107.407,324.559,116.678,314.618,126.536" style="stroke: #A80036; stroke-width: 1.0;"/><!--link PropertyDecorator to LabelDecorator--><path d="M371.12,312.752 C350.027,334.751 327.582,358.1594 309.691,376.819 " fill="none" id="PropertyDecorator-LabelDecorator" style="stroke: #A80036; stroke-width: 1.0;"/><polygon fill="none" points="366.184,307.786,385.079,298.194,376.289,317.475,366.184,307.786" style="stroke: #A80036; stroke-width: 1.0;"/><!--link PropertyDecorator to ColorDecorator--><path d="M438,318.463 C438,338.748 438,359.7665 438,376.819 " fill="none" id="PropertyDecorator-ColorDecorator" style="stroke: #A80036; stroke-width: 1.0;"/><polygon fill="none" points="431,318.194,438,298.194,445,318.194,431,318.194" style="stroke: #A80036; stroke-width: 1.0;"/><!--link PropertyDecorator to RadiusDecorator--><path d="M506.521,312.752 C528.132,334.751 551.127,358.1594 569.457,376.819 " fill="none" id="PropertyDecorator-RadiusDecorator" style="stroke: #A80036; stroke-width: 1.0;"/><polygon fill="none" points="501.242,317.367,492.22,298.194,511.229,307.556,501.242,317.367" style="stroke: #A80036; stroke-width: 1.0;"/><!--
@startuml
Interface Atom{
    + getLabel()
    + getColor()
    + getRadius()
    + getAtomicNumber()
}

Class OxygenAtom{
    + getLabel()
    + getColor()
    + getRadius()
    + getAtomicNumber()
    - static defaultLabel
    - static defaultColor
    - static defaultRadius
    - static atomicNumber
}

Class HydrogenAtom{
    + getLabel()
    + getColor()
    + getRadius()
    + getAtomicNumber()
    - static defaultLabel
    - static defaultColor
    - static defaultRadius
    - static atomicNumber
}

Abstract PropertyDecorator{
    + getLabel()
    + getColor()
    + getRadius()
    + getAtomicNumber()
    - wrappedAtom
}

Class LabelDecorator{
    + getLabel()
    - label
}

Class ColorDecorator{
    + getColor()
    - color
}

Class RadiusDecorator{
    + getRadius()
    - radius
}


Atom <|.. OxygenAtom
Atom <|.. HydrogenAtom

Atom <|.. PropertyDecorator

PropertyDecorator <|- - LabelDecorator
PropertyDecorator <|- - ColorDecorator
PropertyDecorator <|- - RadiusDecorator
@enduml

PlantUML version 1.2018.02(Fri Mar 09 17:20:44 UTC 2018)
(GPL source distribution)
Java Runtime: Java(TM) SE Runtime Environment
JVM: Java HotSpot(TM) 64-Bit Server VM
Java Version: 1.7.0_25-b15
Operating System: Linux
Default Encoding: UTF-8
Language: en
Country: US
--></g></svg>